<svg width="2390" height="586" viewBox="0 0 2390 586" fill="none" xmlns="http://www.w3.org/2000/svg">
<g clip-path="url(#clip0_928_2423)">
<path d="M295 324.72L344.93 374.65L355.03 364.55L215.36 224.88L157.41 279.47L149.81 272.83C143.87 267.64 134.79 267.93 129.46 273.74C126.67 276.78 125.43 280.68 125.69 284.48C125.94 288.17 127.59 291.76 130.6 294.38L150.03 311.36L178.73 336.43C184.83 341.76 185.57 351.21 180.13 357.2C174.86 363.01 165.88 363.55 159.95 358.36L155.69 354.64L126.69 329.3L110.87 315.48C104.93 310.29 95.85 310.58 90.52 316.39C87.73 319.43 86.49 323.33 86.75 327.13C87 330.82 88.65 334.41 91.66 337.03L98.7 343.19L108.21 351.5C114.31 356.83 115.05 366.28 109.61 372.27C104.34 378.08 95.36 378.62 89.43 373.43L85.13 369.67L75.36 361.13L50.31 339.24C44.37 334.05 35.29 334.34 29.96 340.15C27.17 343.19 25.93 347.09 26.19 350.89C26.44 354.58 28.09 358.17 31.1 360.79L46.26 374.04C51.64 378.75 51.38 387.2 45.71 391.56L37.16 403.35L5.75 434.52L52.35 481.12L70.99 499.76L80.18 508.95L145.42 574.19L178.79 540.82L128.86 490.89C128.38 490.41 127.95 489.88 127.59 489.33C127.57 489.29 127.55 489.25 127.52 489.22C127.37 488.98 127.22 488.74 127.09 488.49C126.87 488.07 126.69 487.64 126.54 487.19C126.46 486.96 126.38 486.72 126.32 486.49C125.41 483.15 126.25 479.42 128.87 476.81C132.74 472.94 139.08 472.94 142.96 476.81L192.89 526.74L216.75 502.88L185.84 471.97C181.97 468.1 181.97 461.76 185.84 457.88C186.89 456.83 188.13 456.07 189.45 455.59C192.98 454.3 197.11 455.06 199.93 457.88L230.84 488.79L254.97 464.66L205.04 414.73C204.9 414.59 204.77 414.44 204.64 414.29C204.55 414.18 204.44 414.08 204.35 413.97C201.17 410.07 201.4 404.27 205.03 400.64C208.9 396.77 215.24 396.77 219.12 400.64L269.05 450.57L292.91 426.71L262 395.8C261.62 395.42 261.29 395.01 260.98 394.58C258.18 390.69 258.51 385.2 262 381.71C265.87 377.84 272.21 377.84 276.09 381.71L307 412.62L330.86 388.76L280.93 338.83C279.94 337.84 279.21 336.69 278.72 335.46C277.31 331.88 278.04 327.63 280.93 324.74C284.8 320.87 291.14 320.87 295.02 324.74L295 324.72Z" fill="#6467F2"/>
<path d="M76.7492 247.33L103.469 270.68C109.469 275.93 118.589 275.31 123.839 269.31C129.089 263.31 128.469 254.19 122.469 248.94L95.7492 225.59C89.7492 220.34 80.6292 220.96 75.3792 226.96C70.1292 232.96 70.7492 242.08 76.7492 247.33Z" fill="#6467F2"/>
<path d="M25.3096 336.58C30.5596 330.58 29.9396 321.46 23.9396 316.21C17.9396 310.96 8.81964 311.58 3.56964 317.58C-1.68036 323.58 -1.06036 332.7 4.93964 337.95C10.9396 343.2 20.0596 342.58 25.3096 336.58Z" fill="#6467F2"/>
<path d="M15.7394 270.7L64.6294 313.42C70.6294 318.67 79.7494 318.05 84.9994 312.05C90.2494 306.05 89.6294 296.93 83.6294 291.68L34.7394 248.96C28.7394 243.71 19.6194 244.33 14.3694 250.33C9.11944 256.33 9.73944 265.45 15.7394 270.7Z" fill="#6467F2"/>
<path d="M278.87 261.28L228.94 211.35L218.84 221.45L358.51 361.12L416.46 306.53L424.06 313.17C430 318.36 439.08 318.07 444.41 312.26C447.2 309.22 448.44 305.32 448.18 301.52C447.93 297.83 446.28 294.24 443.27 291.62L423.84 274.64L395.14 249.57C389.04 244.24 388.3 234.79 393.74 228.8C399.01 222.99 407.99 222.45 413.92 227.64L418.18 231.36L447.18 256.7L463 270.52C468.94 275.71 478.02 275.42 483.35 269.61C486.14 266.57 487.38 262.67 487.12 258.87C486.87 255.18 485.22 251.59 482.21 248.97L475.17 242.81L465.66 234.5C459.56 229.17 458.82 219.72 464.26 213.73C469.53 207.92 478.51 207.38 484.44 212.57L488.74 216.33L498.51 224.87L523.56 246.76C529.5 251.95 538.58 251.66 543.91 245.85C546.7 242.81 547.94 238.91 547.68 235.11C547.43 231.42 545.78 227.83 542.77 225.21L527.61 211.96C522.23 207.25 522.49 198.8 528.16 194.44L536.71 182.65L568.12 151.48L521.52 104.88L502.88 86.2401L493.69 77.0501L428.48 11.8201L395.11 45.1901L445.04 95.1201C445.52 95.6001 445.95 96.1301 446.31 96.6801C446.33 96.7201 446.35 96.7601 446.38 96.7901C446.53 97.0301 446.68 97.2701 446.81 97.5201C447.03 97.9401 447.21 98.3701 447.36 98.8201C447.44 99.0501 447.52 99.2901 447.58 99.5201C448.49 102.86 447.65 106.59 445.03 109.2C441.16 113.07 434.82 113.07 430.94 109.2L381.01 59.2701L357.15 83.1301L388.06 114.04C391.93 117.91 391.93 124.25 388.06 128.13C387.01 129.18 385.77 129.94 384.45 130.42C380.92 131.71 376.79 130.95 373.97 128.13L343.06 97.2201L318.93 121.35L368.86 171.28C369 171.42 369.13 171.57 369.26 171.72C369.35 171.83 369.46 171.93 369.55 172.04C372.73 175.94 372.5 181.74 368.87 185.37C365 189.24 358.66 189.24 354.78 185.37L304.85 135.44L280.99 159.3L311.9 190.21C312.28 190.59 312.61 191 312.92 191.43C315.72 195.32 315.39 200.81 311.9 204.3C308.03 208.17 301.69 208.17 297.81 204.3L266.9 173.39L243.04 197.25L292.97 247.18C293.96 248.17 294.69 249.32 295.18 250.55C296.59 254.13 295.86 258.38 292.97 261.27C289.1 265.14 282.76 265.14 278.88 261.27L278.87 261.28Z" fill="#252650"/>
<path d="M497.12 338.67L470.4 315.32C464.4 310.07 455.28 310.69 450.03 316.69C444.78 322.69 445.4 331.81 451.4 337.06L478.12 360.41C484.12 365.66 493.24 365.04 498.49 359.04C503.74 353.04 503.12 343.92 497.12 338.67Z" fill="#252650"/>
<path d="M548.57 249.42C543.32 255.42 543.94 264.54 549.94 269.79C555.94 275.04 565.06 274.42 570.31 268.42C575.56 262.42 574.94 253.3 568.94 248.05C562.94 242.8 553.82 243.42 548.57 249.42Z" fill="#252650"/>
<path d="M558.129 315.3L509.239 272.58C503.239 267.33 494.119 267.95 488.869 273.95C483.619 279.95 484.239 289.07 490.239 294.32L539.129 337.04C545.129 342.29 554.249 341.67 559.499 335.67C564.749 329.67 564.129 320.55 558.129 315.3Z" fill="#252650"/>
</g>
<path d="M704.96 446V131H780.56L875.51 324.95L969.11 131H1044.26V446H981.26V237.65L899.81 401.9H849.86L767.96 237.65V446H704.96ZM1105.3 446V131H1168.3V446H1105.3ZM1136.8 102.65C1128.7 102.65 1121.8 99.8 1116.1 94.1C1110.4 88.4 1107.55 81.5 1107.55 73.4C1107.55 65 1110.4 57.95 1116.1 52.25C1121.8 46.55 1128.7 43.7 1136.8 43.7C1145.2 43.7 1152.1 46.55 1157.5 52.25C1163.2 57.95 1166.05 65 1166.05 73.4C1166.05 81.5 1163.2 88.4 1157.5 94.1C1152.1 99.8 1145.2 102.65 1136.8 102.65ZM1428.12 446V131H1491.12V446H1428.12ZM1229.67 446V131H1292.67V446H1229.67ZM1284.57 310.55V259.7H1438.47V310.55H1284.57ZM1642.23 446L1527.93 131H1595.43L1681.38 382.1L1767.78 131H1834.38L1720.08 446H1642.23ZM1871.27 446V131H2079.62V181.85H1934.27V261.5H2066.12V310.55H1934.27V395.15H2079.62V446H1871.27ZM2134.5 446V131H2253.75C2279.25 131 2300.25 135.35 2316.75 144.05C2333.55 152.75 2346 164.45 2354.1 179.15C2362.5 193.55 2366.7 209.75 2366.7 227.75C2366.7 244.55 2362.65 260.3 2354.55 275C2346.75 289.7 2334.45 301.55 2317.65 310.55C2300.85 319.25 2279.4 323.6 2253.3 323.6H2197.5V446H2134.5ZM2297.4 446L2233.05 307.85H2301.45L2369.4 446H2297.4ZM2197.5 277.7H2250.15C2267.85 277.7 2280.9 273.35 2289.3 264.65C2298 255.95 2302.35 244.4 2302.35 230C2302.35 215.9 2298.15 204.65 2289.75 196.25C2281.35 187.85 2268 183.65 2249.7 183.65H2197.5V277.7Z" fill="#252650"/>
<defs>
<clipPath id="clip0_928_2423">
<rect width="574.36" height="562.36" fill="white" transform="translate(0 11.8201)"/>
</clipPath>
</defs>
</svg>
