<svg version="1.0" xmlns="http://www.w3.org/2000/svg"
viewBox="0 0 563.000000 595.000000"
 preserveAspectRatio="xMidYMid meet">
<g transform="translate(0.000000,595.000000) scale(0.100000,-0.100000)"
fill="#5433FF" stroke="none">
<path d="M1620 5681 c-82 -13 -130 -49 -375 -282 -72 -68 -297 -280 -500 -470
-286 -267 -376 -357 -398 -397 -43 -79 -50 -186 -45 -717 l4 -460 32 -69 c35
-75 77 -131 159 -213 29 -29 53 -59 53 -68 0 -9 -45 -63 -99 -120 -55 -57
-112 -127 -128 -157 l-28 -53 0 -455 0 -455 34 -85 c65 -159 78 -175 246 -303
187 -143 240 -190 550 -488 318 -305 394 -370 473 -406 90 -42 195 -46 887
-33 347 6 864 15 1150 19 584 8 544 3 653 88 31 24 165 147 297 272 132 125
321 302 420 393 99 91 234 221 301 289 106 109 126 136 168 220 45 91 48 102
58 215 11 135 2 583 -14 657 -16 77 -39 102 -297 327 l-62 55 103 87 c57 47
120 103 141 124 41 40 99 151 117 224 8 31 10 195 8 526 l-3 480 -27 42 c-50
74 -313 323 -832 787 -362 323 -419 369 -503 407 l-48 22 -1225 2 c-674 1
-1245 -1 -1270 -5z m903 -1113 c5 -187 3 -306 -3 -329 -8 -28 -53 -78 -193
-215 -202 -199 -389 -372 -430 -399 -24 -15 -66 -18 -390 -23 l-364 -5 -6 69
c-4 38 -7 157 -7 265 l0 197 33 41 c46 58 499 504 608 600 51 44 104 82 118
84 14 2 161 5 327 6 l301 1 6 -292z m1567 160 c69 -68 244 -240 389 -383 l263
-260 -4 -214 c-4 -167 -8 -215 -19 -222 -8 -6 -150 -8 -339 -7 -369 3 -334 -4
-444 96 -33 30 -177 164 -318 296 l-258 241 0 256 c0 141 3 271 6 288 l7 31
295 0 296 0 126 -122z m-1047 -1205 c152 -139 477 -458 477 -468 0 -20 -96
-120 -341 -355 -132 -127 -246 -230 -253 -230 -16 0 -122 83 -236 186 -132
118 -350 332 -350 342 0 9 148 149 559 529 31 29 62 52 69 53 7 0 40 -26 75
-57z m-1242 -1063 c37 -10 87 -56 512 -466 l167 -162 0 -284 c0 -155 -4 -288
-8 -295 -21 -33 -584 -24 -650 11 -24 13 -333 320 -600 597 l-102 106 0 236
c0 178 3 238 13 244 11 7 221 16 512 21 66 1 136 -3 156 -8z m2942 -180 l-3
-185 -97 -90 c-54 -49 -233 -223 -398 -385 -165 -163 -317 -311 -338 -328
l-38 -32 -254 0 -255 0 0 284 0 283 213 200 c116 110 268 254 337 321 l125
121 355 -2 355 -2 -2 -185z"/>
</g>
</svg>