<?xml version="1.0" encoding="UTF-8"?>
<svg id="katman_1" data-name="katman 1" xmlns="http://www.w3.org/2000/svg" viewBox="0 0 3048.87 562.36">
  <defs>
    <style>
      .cls-1 {
        fill: #fff;
      }

      .cls-2 {
        fill: #6467f2;
      }
    </style>
  </defs>
  <g>
    <path class="cls-1" d="M963.96,398.2c-15.3,6.51-33.27,9.75-53.92,9.75-17.59,0-33.75-3.06-48.47-9.18-14.72-6.11-27.34-14.72-37.86-25.81-10.52-11.09-18.74-24.47-24.66-40.15-5.93-15.67-8.89-33.07-8.89-52.19s2.96-35.94,8.89-51.62c5.92-15.67,14.14-29.05,24.66-40.15,10.51-11.09,23.13-19.59,37.86-25.52,14.72-5.92,30.87-8.89,48.47-8.89,19.88,0,37.37,3.25,52.48,9.75,15.1,6.51,28.01,15.49,38.72,26.96l60.22-60.8c-18.74-17.97-40.63-32.12-65.67-42.44-25.05-10.32-53.63-15.49-85.75-15.49-30.21,0-58.22,5.26-84.03,15.77-25.81,10.52-48.28,25.15-67.39,43.88-19.12,18.74-34.04,40.82-44.74,66.25-10.71,25.43-16.06,52.87-16.06,82.31s5.35,56.88,16.06,82.31c10.7,25.43,25.71,47.7,45.02,66.82,19.3,19.12,41.87,33.94,67.68,44.45,25.81,10.51,53.82,15.77,84.03,15.77,32.88,0,61.85-5.16,86.9-15.49,25.04-10.32,47.32-24.47,66.82-42.44l-60.8-60.8c-11.09,11.47-24.29,20.46-39.58,26.96Z"/>
    <polygon class="cls-1" points="1234.11 314.46 1414.79 314.46 1414.79 239.32 1234.11 239.32 1234.11 156.15 1431.99 156.15 1431.99 78.72 1234.11 78.72 1212.89 78.72 1144.06 78.72 1144.06 483.66 1212.89 483.66 1234.11 483.66 1434.86 483.66 1434.86 405.66 1234.11 405.66 1234.11 314.46"/>
    <polygon class="cls-1" points="1514.58 157.3 1641.34 157.3 1641.34 483.66 1731.39 483.66 1731.39 157.3 1858.15 157.3 1858.15 78.72 1514.58 78.72 1514.58 157.3"/>
    <polygon class="cls-1" points="2133.32 352.04 2034.24 78.72 1937.88 78.72 2093.89 483.66 2171.32 483.66 2329.05 78.72 2233.84 78.72 2133.32 352.04"/>
    <polygon class="cls-1" points="2498.82 314.46 2679.5 314.46 2679.5 239.32 2498.82 239.32 2498.82 156.15 2696.7 156.15 2696.7 78.72 2498.82 78.72 2477.6 78.72 2408.77 78.72 2408.77 483.66 2477.6 483.66 2498.82 483.66 2699.57 483.66 2699.57 405.66 2498.82 405.66 2498.82 314.46"/>
    <polygon class="cls-1" points="2869.35 404.51 2869.35 78.72 2779.3 78.72 2779.3 483.66 2848.7 483.66 2869.35 483.66 3048.87 483.66 3048.87 404.51 2869.35 404.51"/>
  </g>
  <g>
    <path class="cls-1" d="M295,312.9l49.93,49.93,10.1-10.1h0l-139.67-139.67-57.95,54.59-7.6-6.64c-5.94-5.19-15.02-4.9-20.35.91-2.79,3.04-4.03,6.94-3.77,10.74.25,3.69,1.9,7.28,4.91,9.9l19.43,16.98,28.7,25.07c6.1,5.33,6.84,14.78,1.4,20.77-5.27,5.81-14.25,6.35-20.18,1.16l-4.26-3.72-29-25.34-15.82-13.82c-5.94-5.19-15.02-4.9-20.35.91-2.79,3.04-4.03,6.94-3.77,10.74.25,3.69,1.9,7.28,4.91,9.9l7.04,6.16,9.51,8.31c6.1,5.33,6.84,14.78,1.4,20.77-5.27,5.81-14.25,6.35-20.18,1.16l-4.3-3.76-9.77-8.54-25.05-21.89c-5.94-5.19-15.02-4.9-20.35.91-2.79,3.04-4.03,6.94-3.77,10.74.25,3.69,1.9,7.28,4.91,9.9l15.16,13.25c5.38,4.71,5.12,13.16-.55,17.52l-8.55,11.79-31.41,31.17h0s0,0,0,0l46.6,46.6,18.64,18.64,9.19,9.19h0s65.24,65.24,65.24,65.24h0s33.37-33.37,33.37-33.37h0,0s-49.93-49.93-49.93-49.93c-.48-.48-.91-1.01-1.27-1.56-.02-.04-.04-.08-.07-.11-.15-.24-.3-.48-.43-.73-.22-.42-.4-.85-.55-1.3-.08-.23-.16-.47-.22-.7-.91-3.34-.07-7.07,2.55-9.68,3.87-3.87,10.21-3.87,14.09,0l49.93,49.93,23.86-23.86h0s0,0,0,0l-30.91-30.91c-3.87-3.87-3.87-10.21,0-14.09,1.05-1.05,2.29-1.81,3.61-2.29,3.53-1.29,7.66-.53,10.48,2.29l30.91,30.91,24.13-24.13h0s-49.93-49.93-49.93-49.93c-.14-.14-.27-.29-.4-.44-.09-.11-.2-.21-.29-.32-3.18-3.9-2.95-9.7.68-13.33,3.87-3.87,10.21-3.87,14.09,0l49.93,49.93,23.86-23.86-30.91-30.91c-.38-.38-.71-.79-1.02-1.22-2.8-3.89-2.47-9.38,1.02-12.87,3.87-3.87,10.21-3.87,14.09,0l30.91,30.91,23.86-23.86h0s0,0,0,0l-49.93-49.93c-.99-.99-1.72-2.14-2.21-3.37-1.41-3.58-.68-7.83,2.21-10.72,3.87-3.87,10.21-3.87,14.09,0Z"/>
    <path class="cls-1" d="M76.75,235.51l26.72,23.35c6,5.25,15.12,4.63,20.37-1.37,5.25-6,4.63-15.12-1.37-20.37l-26.72-23.35c-6-5.25-15.12-4.63-20.37,1.37h0c-5.25,6-4.63,15.12,1.37,20.37Z"/>
    <path class="cls-1" d="M25.31,324.76c5.25-6,4.63-15.12-1.37-20.37-6-5.25-15.12-4.63-20.37,1.37-5.25,6-4.63,15.12,1.37,20.37,6,5.25,15.12,4.63,20.37-1.37Z"/>
    <path class="cls-1" d="M15.74,258.88l48.89,42.72c6,5.25,15.12,4.63,20.37-1.37,5.25-6,4.63-15.12-1.37-20.37l-48.89-42.72c-6-5.25-15.12-4.63-20.37,1.37-5.25,6-4.63,15.12,1.37,20.37Z"/>
  </g>
  <g>
    <path class="cls-2" d="M278.87,249.46l-49.93-49.93-10.1,10.1h0l139.67,139.67,57.95-54.59,7.6,6.64c5.94,5.19,15.02,4.9,20.35-.91,2.79-3.04,4.03-6.94,3.77-10.74-.25-3.69-1.9-7.28-4.91-9.9l-19.43-16.98-28.7-25.07c-6.1-5.33-6.84-14.78-1.4-20.77,5.27-5.81,14.25-6.35,20.18-1.16l4.26,3.72,29,25.34,15.82,13.82c5.94,5.19,15.02,4.9,20.35-.91,2.79-3.04,4.03-6.94,3.77-10.74-.25-3.69-1.9-7.28-4.91-9.9l-7.04-6.16-9.51-8.31c-6.1-5.33-6.84-14.78-1.4-20.77,5.27-5.81,14.25-6.35,20.18-1.16l4.3,3.76,9.77,8.54,25.05,21.89c5.94,5.19,15.02,4.9,20.35-.91,2.79-3.04,4.03-6.94,3.77-10.74-.25-3.69-1.9-7.28-4.91-9.9l-15.16-13.25c-5.38-4.71-5.12-13.16.55-17.52l8.55-11.79,31.41-31.17h0s0,0,0,0l-46.6-46.6-18.64-18.64-9.19-9.19h0S428.48,0,428.48,0h0s-33.37,33.37-33.37,33.37h0,0s49.93,49.93,49.93,49.93c.48.48.91,1.01,1.27,1.56.02.04.04.08.07.11.15.24.3.48.43.73.22.42.4.85.55,1.3.08.23.16.47.22.7.91,3.34.07,7.07-2.55,9.68-3.87,3.87-10.21,3.87-14.09,0l-49.93-49.93-23.86,23.86h0s0,0,0,0l30.91,30.91c3.87,3.87,3.87,10.21,0,14.09-1.05,1.05-2.29,1.81-3.61,2.29-3.53,1.29-7.66.53-10.48-2.29l-30.91-30.91-24.13,24.13h0s49.93,49.93,49.93,49.93c.14.14.27.29.4.44.09.11.2.21.29.32,3.18,3.9,2.95,9.7-.68,13.33-3.87,3.87-10.21,3.87-14.09,0l-49.93-49.93-23.86,23.86,30.91,30.91c.38.38.71.79,1.02,1.22,2.8,3.89,2.47,9.38-1.02,12.87-3.87,3.87-10.21,3.87-14.09,0l-30.91-30.91-23.86,23.86h0s0,0,0,0l49.93,49.93c.99.99,1.72,2.14,2.21,3.37,1.41,3.58.68,7.83-2.21,10.72-3.87,3.87-10.21,3.87-14.09,0Z"/>
    <path class="cls-2" d="M497.12,326.85l-26.72-23.35c-6-5.25-15.12-4.63-20.37,1.37-5.25,6-4.63,15.12,1.37,20.37l26.72,23.35c6,5.25,15.12,4.63,20.37-1.37h0c5.25-6,4.63-15.12-1.37-20.37Z"/>
    <path class="cls-2" d="M548.57,237.6c-5.25,6-4.63,15.12,1.37,20.37,6,5.25,15.12,4.63,20.37-1.37,5.25-6,4.63-15.12-1.37-20.37-6-5.25-15.12-4.63-20.37,1.37Z"/>
    <path class="cls-2" d="M558.13,303.48l-48.89-42.72c-6-5.25-15.12-4.63-20.37,1.37-5.25,6-4.63,15.12,1.37,20.37l48.89,42.72c6,5.25,15.12,4.63,20.37-1.37,5.25-6,4.63-15.12-1.37-20.37Z"/>
  </g>
</svg>