<svg width="2276" height="563" viewBox="0 0 2276 563" fill="none" xmlns="http://www.w3.org/2000/svg">
<g clip-path="url(#clip0_928_2425)">
<path d="M295 312.9L344.93 362.83L355.03 352.73L215.36 213.06L157.41 267.65L149.81 261.01C143.87 255.82 134.79 256.11 129.46 261.92C126.67 264.96 125.43 268.86 125.69 272.66C125.94 276.35 127.59 279.94 130.6 282.56L150.03 299.54L178.73 324.61C184.83 329.94 185.57 339.39 180.13 345.38C174.86 351.19 165.88 351.73 159.95 346.54L155.69 342.82L126.69 317.48L110.87 303.66C104.93 298.47 95.85 298.76 90.52 304.57C87.73 307.61 86.49 311.51 86.75 315.31C87 319 88.65 322.59 91.66 325.21L98.7 331.37L108.21 339.68C114.31 345.01 115.05 354.46 109.61 360.45C104.34 366.26 95.36 366.8 89.43 361.61L85.13 357.85L75.36 349.31L50.31 327.42C44.37 322.23 35.29 322.52 29.96 328.33C27.17 331.37 25.93 335.27 26.19 339.07C26.44 342.76 28.09 346.35 31.1 348.97L46.26 362.22C51.64 366.93 51.38 375.38 45.71 379.74L37.16 391.53L5.75 422.7L52.35 469.3L70.99 487.94L80.18 497.13L145.42 562.37L178.79 529L128.86 479.07C128.38 478.59 127.95 478.06 127.59 477.51C127.57 477.47 127.55 477.43 127.52 477.4C127.37 477.16 127.22 476.92 127.09 476.67C126.87 476.25 126.69 475.82 126.54 475.37C126.46 475.14 126.38 474.9 126.32 474.67C125.41 471.33 126.25 467.6 128.87 464.99C132.74 461.12 139.08 461.12 142.96 464.99L192.89 514.92L216.75 491.06L185.84 460.15C181.97 456.28 181.97 449.94 185.84 446.06C186.89 445.01 188.13 444.25 189.45 443.77C192.98 442.48 197.11 443.24 199.93 446.06L230.84 476.97L254.97 452.84L205.04 402.91C204.9 402.77 204.77 402.62 204.64 402.47C204.55 402.36 204.44 402.26 204.35 402.15C201.17 398.25 201.4 392.45 205.03 388.82C208.9 384.95 215.24 384.95 219.12 388.82L269.05 438.75L292.91 414.89L262 383.98C261.62 383.6 261.29 383.19 260.98 382.76C258.18 378.87 258.51 373.38 262 369.89C265.87 366.02 272.21 366.02 276.09 369.89L307 400.8L330.86 376.94L280.93 327.01C279.94 326.02 279.21 324.87 278.72 323.64C277.31 320.06 278.04 315.81 280.93 312.92C284.8 309.05 291.14 309.05 295.02 312.92L295 312.9Z" fill="white"/>
<path d="M76.7492 235.51L103.469 258.86C109.469 264.11 118.589 263.49 123.839 257.49C129.089 251.49 128.469 242.37 122.469 237.12L95.7492 213.77C89.7492 208.52 80.6292 209.14 75.3792 215.14C70.1292 221.14 70.7492 230.26 76.7492 235.51Z" fill="white"/>
<path d="M25.3096 324.76C30.5596 318.76 29.9396 309.64 23.9396 304.39C17.9396 299.14 8.81964 299.76 3.56964 305.76C-1.68036 311.76 -1.06036 320.88 4.93964 326.13C10.9396 331.38 20.0596 330.76 25.3096 324.76Z" fill="white"/>
<path d="M15.7394 258.88L64.6294 301.6C70.6294 306.85 79.7494 306.23 84.9994 300.23C90.2494 294.23 89.6294 285.11 83.6294 279.86L34.7394 237.14C28.7394 231.89 19.6194 232.51 14.3694 238.51C9.11944 244.51 9.73944 253.63 15.7394 258.88Z" fill="white"/>
<path d="M278.87 249.46L228.94 199.53L218.84 209.63L358.51 349.3L416.46 294.71L424.06 301.35C430 306.54 439.08 306.25 444.41 300.44C447.2 297.4 448.44 293.5 448.18 289.7C447.93 286.01 446.28 282.42 443.27 279.8L423.84 262.82L395.14 237.75C389.04 232.42 388.3 222.97 393.74 216.98C399.01 211.17 407.99 210.63 413.92 215.82L418.18 219.54L447.18 244.88L463 258.7C468.94 263.89 478.02 263.6 483.35 257.79C486.14 254.75 487.38 250.85 487.12 247.05C486.87 243.36 485.22 239.77 482.21 237.15L475.17 230.99L465.66 222.68C459.56 217.35 458.82 207.9 464.26 201.91C469.53 196.1 478.51 195.56 484.44 200.75L488.74 204.51L498.51 213.05L523.56 234.94C529.5 240.13 538.58 239.84 543.91 234.03C546.7 230.99 547.94 227.09 547.68 223.29C547.43 219.6 545.78 216.01 542.77 213.39L527.61 200.14C522.23 195.43 522.49 186.98 528.16 182.62L536.71 170.83L568.12 139.66L521.52 93.06L502.88 74.42L493.69 65.23L428.48 0L395.11 33.37L445.04 83.3C445.52 83.78 445.95 84.31 446.31 84.86C446.33 84.9 446.35 84.94 446.38 84.97C446.53 85.21 446.68 85.45 446.81 85.7C447.03 86.12 447.21 86.55 447.36 87C447.44 87.23 447.52 87.47 447.58 87.7C448.49 91.04 447.65 94.77 445.03 97.38C441.16 101.25 434.82 101.25 430.94 97.38L381.01 47.45L357.15 71.31L388.06 102.22C391.93 106.09 391.93 112.43 388.06 116.31C387.01 117.36 385.77 118.12 384.45 118.6C380.92 119.89 376.79 119.13 373.97 116.31L343.06 85.4L318.93 109.53L368.86 159.46C369 159.6 369.13 159.75 369.26 159.9C369.35 160.01 369.46 160.11 369.55 160.22C372.73 164.12 372.5 169.92 368.87 173.55C365 177.42 358.66 177.42 354.78 173.55L304.85 123.62L280.99 147.48L311.9 178.39C312.28 178.77 312.61 179.18 312.92 179.61C315.72 183.5 315.39 188.99 311.9 192.48C308.03 196.35 301.69 196.35 297.81 192.48L266.9 161.57L243.04 185.43L292.97 235.36C293.96 236.35 294.69 237.5 295.18 238.73C296.59 242.31 295.86 246.56 292.97 249.45C289.1 253.32 282.76 253.32 278.88 249.45L278.87 249.46Z" fill="#6467F2"/>
<path d="M497.12 326.85L470.4 303.5C464.4 298.25 455.28 298.87 450.03 304.87C444.78 310.87 445.4 319.99 451.4 325.24L478.12 348.59C484.12 353.84 493.24 353.22 498.49 347.22C503.74 341.22 503.12 332.1 497.12 326.85Z" fill="#6467F2"/>
<path d="M548.57 237.6C543.32 243.6 543.94 252.72 549.94 257.97C555.94 263.22 565.06 262.6 570.31 256.6C575.56 250.6 574.94 241.48 568.94 236.23C562.94 230.98 553.82 231.6 548.57 237.6Z" fill="#6467F2"/>
<path d="M558.129 303.48L509.239 260.76C503.239 255.51 494.119 256.13 488.869 262.13C483.619 268.13 484.239 277.25 490.239 282.5L539.129 325.22C545.129 330.47 554.249 329.85 559.499 323.85C564.749 317.85 564.129 308.73 558.129 303.48Z" fill="#6467F2"/>
</g>
<path d="M702.92 424.68V130.68H773.48L862.1 311.7L949.46 130.68H1019.6V424.68H960.8V230.22L884.78 383.52H838.16L761.72 230.22V424.68H702.92ZM1076.57 424.68V130.68H1135.37V424.68H1076.57ZM1105.97 104.22C1098.41 104.22 1091.97 101.56 1086.65 96.2399C1081.33 90.9199 1078.67 84.4799 1078.67 76.9199C1078.67 69.0799 1081.33 62.4999 1086.65 57.1799C1091.97 51.8599 1098.41 49.1999 1105.97 49.1999C1113.81 49.1999 1120.25 51.8599 1125.29 57.1799C1130.61 62.4999 1133.27 69.0799 1133.27 76.9199C1133.27 84.4799 1130.61 90.9199 1125.29 96.2399C1120.25 101.56 1113.81 104.22 1105.97 104.22ZM1377.87 424.68V130.68H1436.67V424.68H1377.87ZM1192.65 424.68V130.68H1251.45V424.68H1192.65ZM1243.89 298.26V250.8H1387.53V298.26H1243.89ZM1577.7 424.68L1471.02 130.68H1534.02L1614.24 365.04L1694.88 130.68H1757.04L1650.36 424.68H1577.7ZM1791.48 424.68V130.68H1985.94V178.14H1850.28V252.48H1973.34V298.26H1850.28V377.22H1985.94V424.68H1791.48ZM2037.16 424.68V130.68H2148.46C2172.26 130.68 2191.86 134.74 2207.26 142.86C2222.94 150.98 2234.56 161.9 2242.12 175.62C2249.96 189.06 2253.88 204.18 2253.88 220.98C2253.88 236.66 2250.1 251.36 2242.54 265.08C2235.26 278.8 2223.78 289.86 2208.1 298.26C2192.42 306.38 2172.4 310.44 2148.04 310.44H2095.96V424.68H2037.16ZM2189.2 424.68L2129.14 295.74H2192.98L2256.4 424.68H2189.2ZM2095.96 267.6H2145.1C2161.62 267.6 2173.8 263.54 2181.64 255.42C2189.76 247.3 2193.82 236.52 2193.82 223.08C2193.82 209.92 2189.9 199.42 2182.06 191.58C2174.22 183.74 2161.76 179.82 2144.68 179.82H2095.96V267.6Z" fill="white"/>
<defs>
<clipPath id="clip0_928_2425">
<rect width="574.36" height="562.36" fill="white"/>
</clipPath>
</defs>
</svg>
